<?xml version="1.0" encoding="UTF-8" standalone="no"?>
<!-- Created with Inkscape (http://www.inkscape.org/) -->

<svg
   width="3.6405675cm"
   height="1.146981cm"
   viewBox="0 0 36.405675 11.46981"
   version="1.1"
   id="svg21"
   xml:space="preserve"
   xmlns:xlink="http://www.w3.org/1999/xlink"
   xmlns="http://www.w3.org/2000/svg"
   xmlns:svg="http://www.w3.org/2000/svg"><defs
     id="defs18"><linearGradient
       id="linearGradient1930"><stop
         style="stop-color:#1c7f9d;stop-opacity:1;"
         offset="0"
         id="stop1926" /><stop
         style="stop-color:#0fabdc;stop-opacity:1;"
         offset="1"
         id="stop1928" /></linearGradient><linearGradient
       id="linearGradient1924"><stop
         style="stop-color:#2193bc;stop-opacity:1;"
         offset="0"
         id="stop1920" /><stop
         style="stop-color:#106482;stop-opacity:1;"
         offset="1"
         id="stop1922" /></linearGradient><linearGradient
       xlink:href="#linearGradient1930"
       id="linearGradient17480"
       x1="77.937965"
       y1="128.93855"
       x2="98.420181"
       y2="128.93855"
       gradientUnits="userSpaceOnUse" /><linearGradient
       xlink:href="#linearGradient1924"
       id="linearGradient23326"
       gradientUnits="userSpaceOnUse"
       x1="77.937965"
       y1="128.93855"
       x2="98.420181"
       y2="128.93855"
       gradientTransform="matrix(2.5776937,0,0,2.5776937,-64.734356,-154.53657)" /></defs><g
     id="layer4-3"
     transform="matrix(0.18830544,0,0,0.18830544,-25.64077,-28.068978)"
     style="fill:url(#linearGradient17480);fill-opacity:1"><path
       id="path17486-7-5"
       style="color:#000000;opacity:1;fill:url(#linearGradient23326);fill-opacity:1;stroke:none;stroke-width:4.14061;stroke-linecap:round;stroke-linejoin:round;-inkscape-stroke:none;paint-order:markers fill stroke"
       d="m 162.56495,149.0609 a 2.0705076,2.0705076 0 0 0 -1.55585,0.70466 c -2.48594,2.82631 -5.47955,5.59988 -8.94611,7.00399 -3.46651,1.40403 -7.39841,1.61967 -12.556,-0.93646 a 2.0705076,2.0705076 0 0 0 -2.98647,1.76632 c -0.35468,8.63947 -2.33675,25.11155 9.01673,38.24744 5.08257,5.88056 11.15824,8.47983 16.23247,10.58854 a 2.0705076,2.0705076 0 0 0 1.59047,0 c 5.07428,-2.10874 11.14852,-4.70795 16.23118,-10.58854 11.35342,-13.13589 9.37138,-29.60803 9.01669,-38.24744 a 2.0705076,2.0705076 0 0 0 -2.99046,-1.76632 c -5.15766,2.55613 -9.08941,2.34049 -12.55601,0.93646 -3.46655,-1.40411 -6.4548,-4.17768 -8.9408,-7.00399 a 2.0705076,2.0705076 0 0 0 -1.55584,-0.70466 z m 6.37526,18.67416 a 2.1193083,2.1193083 0 0 1 1.25743,0.33166 l 12.47078,7.97505 a 2.1193083,2.1193083 0 0 1 -0.005,3.57393 l -12.49605,7.94439 a 2.1190963,2.1190963 0 0 1 -2.92521,-0.64869 2.1190963,2.1190963 0 0 1 0.65005,-2.92523 l 9.69605,-6.16341 -8.08026,-5.16974 -11.79141,14.48882 a 2.1193083,2.1193083 0 0 1 -2.78401,0.44891 l -12.47606,-7.98039 a 2.1193083,2.1193083 0 0 1 0.005,-3.56859 l 12.49603,-7.94975 a 2.1190963,2.1190963 0 0 1 2.92521,0.65405 2.1190963,2.1190963 0 0 1 -0.65004,2.92522 l -9.69072,6.16212 8.08027,5.17105 11.7914,-14.49548 a 2.1193083,2.1193083 0 0 1 1.52652,-0.77392 z" /><text
       xml:space="preserve"
       style="font-style:normal;font-variant:normal;font-weight:500;font-stretch:normal;font-size:42.1981px;font-family:Mukta;-inkscape-font-specification:'Mukta Medium';opacity:1;fill:#17a9dd;fill-opacity:1;fill-rule:nonzero;stroke:none;stroke-width:0.58809;stroke-linecap:butt;stroke-linejoin:miter;stroke-dasharray:none;stroke-opacity:0.908562;paint-order:stroke markers fill"
       x="198.64288"
       y="187.7863"
       id="text24511"><tspan
         id="tspan24509"
         style="font-style:normal;font-variant:normal;font-weight:500;font-stretch:normal;font-family:Mukta;-inkscape-font-specification:'Mukta Medium';fill:#17a9dd;fill-opacity:1;stroke-width:0.58809;stroke-dasharray:none"
         x="198.64288"
         y="187.7863">Digiton</tspan></text><text
       xml:space="preserve"
       style="font-style:normal;font-variant:normal;font-weight:300;font-stretch:normal;font-size:15.5169px;font-family:Mukta;-inkscape-font-specification:'Mukta Light';opacity:1;fill:#1b6987;fill-opacity:1;stroke-width:0.215515;stroke-opacity:0.908562;paint-order:stroke markers fill"
       x="262.65216"
       y="206.40268"
       id="text1003"><tspan
         id="tspan1001"
         style="font-style:normal;font-variant:normal;font-weight:300;font-stretch:normal;font-family:Mukta;-inkscape-font-specification:'Mukta Light';fill:#1b6987;fill-opacity:1;stroke-width:0.215512"
         x="262.65216"
         y="206.40268">Tecnologia</tspan></text></g></svg>
