<?xml version="1.0" encoding="UTF-8" standalone="no"?>
<!-- Created with Inkscape (http://www.inkscape.org/) -->

<svg
   width="18.809599cm"
   height="17.037861cm"
   viewBox="0 0 188.09599 170.37861"
   version="1.1"
   id="svg21"
   xml:space="preserve"
   xmlns:xlink="http://www.w3.org/1999/xlink"
   xmlns="http://www.w3.org/2000/svg"
   xmlns:svg="http://www.w3.org/2000/svg"><defs
     id="defs18"><linearGradient
       id="linearGradient15536"><stop
         style="stop-color:#0cd5e2;stop-opacity:0.17495471;"
         offset="0.14672668"
         id="stop15532" /><stop
         style="stop-color:#0b6788;stop-opacity:0;"
         offset="1"
         id="stop15534" /></linearGradient><linearGradient
       id="linearGradient15486"><stop
         style="stop-color:#a81ffe;stop-opacity:0.19577079;"
         offset="0.14672668"
         id="stop15482" /><stop
         style="stop-color:#0b6788;stop-opacity:0;"
         offset="1"
         id="stop15484" /></linearGradient><linearGradient
       id="linearGradient15432"><stop
         style="stop-color:#e526f7;stop-opacity:0.17495471;"
         offset="0.14672668"
         id="stop15428" /><stop
         style="stop-color:#0b6788;stop-opacity:0;"
         offset="1"
         id="stop15430" /></linearGradient><linearGradient
       id="linearGradient12374"><stop
         style="stop-color:#24eae3;stop-opacity:1;"
         offset="0"
         id="stop12370" /><stop
         style="stop-color:#994fff;stop-opacity:1;"
         offset="0.5"
         id="stop12378" /><stop
         style="stop-color:#f646ec;stop-opacity:1;"
         offset="1"
         id="stop12372" /></linearGradient><linearGradient
       id="linearGradient5449"><stop
         style="stop-color:#2cb2e6;stop-opacity:1;"
         offset="0"
         id="stop5445" /><stop
         style="stop-color:#2cb2e6;stop-opacity:0;"
         offset="1"
         id="stop5447" /></linearGradient><linearGradient
       id="linearGradient4702"><stop
         style="stop-color:#37baeb;stop-opacity:0.21883319;"
         offset="0.02160791"
         id="stop4698" /><stop
         style="stop-color:#2cb2e6;stop-opacity:1;"
         offset="1"
         id="stop4700" /></linearGradient><linearGradient
       xlink:href="#linearGradient4702"
       id="linearGradient4704"
       x1="60.920395"
       y1="40.111816"
       x2="106.70199"
       y2="40.111816"
       gradientUnits="userSpaceOnUse" /><linearGradient
       xlink:href="#linearGradient5449"
       id="linearGradient5451"
       x1="-8.1493645"
       y1="118.58627"
       x2="25.537514"
       y2="118.58627"
       gradientUnits="userSpaceOnUse" /><linearGradient
       xlink:href="#linearGradient12374"
       id="linearGradient12376"
       x1="-0.51893497"
       y1="70.037872"
       x2="100.58214"
       y2="70.037872"
       gradientUnits="userSpaceOnUse" /><radialGradient
       xlink:href="#linearGradient15432"
       id="radialGradient15434"
       cx="84.730583"
       cy="117.6049"
       fx="84.730583"
       fy="117.6049"
       r="23.516157"
       gradientUnits="userSpaceOnUse"
       gradientTransform="matrix(1.8817035,0,0,1.652016,-76.894402,-73.3563)" /><radialGradient
       xlink:href="#linearGradient15486"
       id="radialGradient15434-5"
       cx="84.730583"
       cy="117.6049"
       fx="84.730583"
       fy="117.6049"
       r="23.516157"
       gradientUnits="userSpaceOnUse"
       gradientTransform="matrix(1.8817035,0,0,1.652016,-135.05726,-166.15334)" /><radialGradient
       xlink:href="#linearGradient15536"
       id="radialGradient15434-1"
       cx="84.730583"
       cy="117.6049"
       fx="84.730583"
       fy="117.6049"
       r="23.516157"
       gradientUnits="userSpaceOnUse"
       gradientTransform="matrix(2.6177045,0,0,2.1614483,-114.97311,-187.3891)" /></defs><g
     id="layer1"
     style="display:inline"
     transform="translate(19.803467,10.658974)"><path
       id="circle12125"
       style="display:inline;opacity:0.119616;fill:url(#linearGradient12376);fill-opacity:1;stroke-width:0.0491467;paint-order:stroke markers fill"
       d="m 46.082841,25.941376 a 0.36383191,0.36383191 0 0 1 -0.363832,0.363832 0.36383191,0.36383191 0 0 1 -0.363832,-0.363832 0.36383191,0.36383191 0 0 1 0.363832,-0.363832 0.36383191,0.36383191 0 0 1 0.363832,0.363832 z m 46.342285,59.753372 a 0.36383191,0.36383191 0 0 1 -0.363831,0.363832 0.36383191,0.36383191 0 0 1 -0.363832,-0.363832 0.36383191,0.36383191 0 0 1 0.363832,-0.363832 0.36383191,0.36383191 0 0 1 0.363831,0.363832 z m -51.651137,6.986023 a 0.30961779,0.30961779 0 0 1 -0.309618,0.309618 0.30961779,0.30961779 0 0 1 -0.309618,-0.309618 0.30961779,0.30961779 0 0 1 0.309618,-0.309618 0.30961779,0.30961779 0 0 1 0.309618,0.309618 z M 63.916658,35.897034 a 0.36383191,0.36383191 0 0 1 -0.363832,0.363832 0.36383191,0.36383191 0 0 1 -0.363832,-0.363832 0.36383191,0.36383191 0 0 1 0.363832,-0.363832 0.36383191,0.36383191 0 0 1 0.363832,0.363832 z m 7.195753,28.597091 a 0.47602803,0.47602803 0 0 1 -0.476028,0.476028 0.47602803,0.47602803 0 0 1 -0.476028,-0.476028 0.47602803,0.47602803 0 0 1 0.476028,-0.476028 0.47602803,0.47602803 0 0 1 0.476028,0.476028 z M 44.108172,49.883205 a 0.22704987,0.22704987 0 0 1 -0.227049,0.22705 0.22704987,0.22704987 0 0 1 -0.22705,-0.22705 0.22704987,0.22704987 0 0 1 0.22705,-0.227049 0.22704987,0.22704987 0 0 1 0.227049,0.227049 z m 17.8774,54.818215 a 0.24408998,0.24408998 0 0 1 -0.24409,0.24409 0.24408998,0.24408998 0 0 1 -0.24409,-0.24409 0.24408998,0.24408998 0 0 1 0.24409,-0.24409 0.24408998,0.24408998 0 0 1 0.24409,0.24409 z M 27.931688,21.511887 a 0.36383191,0.36383191 0 0 1 -0.363832,0.363832 0.36383191,0.36383191 0 0 1 -0.363832,-0.363832 0.36383191,0.36383191 0 0 1 0.363832,-0.363832 0.36383191,0.36383191 0 0 1 0.363832,0.363832 z m 0.45042,8.732771 a 0.30961779,0.30961779 0 0 1 -0.309617,0.309617 0.30961779,0.30961779 0 0 1 -0.309618,-0.309617 0.30961779,0.30961779 0 0 1 0.309618,-0.309618 0.30961779,0.30961779 0 0 1 0.309617,0.309618 z M 5.1019901,68.477272 A 0.36383191,0.36383191 0 0 1 4.7381582,68.841104 0.36383191,0.36383191 0 0 1 4.3743263,68.477272 0.36383191,0.36383191 0 0 1 4.7381582,68.11344 0.36383191,0.36383191 0 0 1 5.1019901,68.477272 Z M 0.44034009,11.853186 a 0.36383191,0.36383191 0 0 1 -0.3638319,0.363832 0.36383191,0.36383191 0 0 1 -0.36383191,-0.363832 0.36383191,0.36383191 0 0 1 0.36383191,-0.363832 0.36383191,0.36383191 0 0 1 0.3638319,0.363832 z M 36.450731,1.1283993 A 0.30961779,0.30961779 0 0 1 36.141113,1.438017 0.30961779,0.30961779 0 0 1 35.831495,1.1283993 0.30961779,0.30961779 0 0 1 36.141113,0.81878147 0.30961779,0.30961779 0 0 1 36.450731,1.1283993 Z M 97.235544,66.344704 a 0.36383191,0.36383191 0 0 1 -0.363832,0.363832 0.36383191,0.36383191 0 0 1 -0.363832,-0.363832 0.36383191,0.36383191 0 0 1 0.363832,-0.363832 0.36383191,0.36383191 0 0 1 0.363832,0.363832 z M 69.526971,15.816181 a 0.36383191,0.36383191 0 0 1 -0.363832,0.363832 0.36383191,0.36383191 0 0 1 -0.363832,-0.363832 0.36383191,0.36383191 0 0 1 0.363832,-0.363832 0.36383191,0.36383191 0 0 1 0.363832,0.363832 z M 35.559854,106.93919 a 0.30961779,0.30961779 0 0 1 -0.309617,0.30962 0.30961779,0.30961779 0 0 1 -0.309618,-0.30962 0.30961779,0.30961779 0 0 1 0.309618,-0.30961 0.30961779,0.30961779 0 0 1 0.309617,0.30961 z M 35.734735,1.5055997 A 0.36383191,0.36383191 0 0 1 35.370903,1.8694316 0.36383191,0.36383191 0 0 1 35.007071,1.5055997 0.36383191,0.36383191 0 0 1 35.370903,1.1417678 0.36383191,0.36383191 0 0 1 35.734735,1.5055997 Z M 62.658399,4.0907593 A 0.36383191,0.36383191 0 0 1 62.294567,4.4545912 0.36383191,0.36383191 0 0 1 61.930735,4.0907593 0.36383191,0.36383191 0 0 1 62.294567,3.7269274 0.36383191,0.36383191 0 0 1 62.658399,4.0907593 Z M 56.181787,35.673317 a 0.30961779,0.30961779 0 0 1 -0.309618,0.309618 0.30961779,0.30961779 0 0 1 -0.309617,-0.309618 0.30961779,0.30961779 0 0 1 0.309617,-0.309618 0.30961779,0.30961779 0 0 1 0.309618,0.309618 z M 6.9243006,37.821262 A 0.36383191,0.36383191 0 0 1 6.5604687,38.185094 0.36383191,0.36383191 0 0 1 6.1966368,37.821262 0.36383191,0.36383191 0 0 1 6.5604687,37.45743 0.36383191,0.36383191 0 0 1 6.9243006,37.821262 Z M 33.725589,133.88142 a 0.47602803,0.47602803 0 0 1 -0.476028,0.47603 0.47602803,0.47602803 0 0 1 -0.476028,-0.47603 0.47602803,0.47602803 0 0 1 0.476028,-0.47602 0.47602803,0.47602803 0 0 1 0.476028,0.47602 z M 19.230699,66.555725 a 0.22704987,0.22704987 0 0 1 -0.22705,0.22705 0.22704987,0.22704987 0 0 1 -0.22705,-0.22705 0.22704987,0.22704987 0 0 1 0.22705,-0.22705 0.22704987,0.22704987 0 0 1 0.22705,0.22705 z M 95.686053,106.4286 a 0.24408998,0.24408998 0 0 1 -0.24409,0.24409 0.24408998,0.24408998 0 0 1 -0.24409,-0.24409 0.24408998,0.24408998 0 0 1 0.24409,-0.24409 0.24408998,0.24408998 0 0 1 0.24409,0.24409 z M 55.773828,41.044373 a 0.36383191,0.36383191 0 0 1 -0.363832,0.363831 0.36383191,0.36383191 0 0 1 -0.363832,-0.363831 0.36383191,0.36383191 0 0 1 0.363832,-0.363832 0.36383191,0.36383191 0 0 1 0.363832,0.363832 z M 36.231241,1.4993674 A 0.30961779,0.30961779 0 0 1 35.921623,1.8089851 0.30961779,0.30961779 0 0 1 35.612005,1.4993674 0.30961779,0.30961779 0 0 1 35.921623,1.1897496 0.30961779,0.30961779 0 0 1 36.231241,1.4993674 Z M 74.314416,80.536621 a 0.36383191,0.36383191 0 0 1 -0.363832,0.363832 0.36383191,0.36383191 0 0 1 -0.363831,-0.363832 0.36383191,0.36383191 0 0 1 0.363831,-0.363832 0.36383191,0.36383191 0 0 1 0.363832,0.363832 z M 19.110076,2.5731955 a 0.36383191,0.36383191 0 0 1 -0.363832,0.3638319 0.36383191,0.36383191 0 0 1 -0.363831,-0.3638319 0.36383191,0.36383191 0 0 1 0.363831,-0.363832 0.36383191,0.36383191 0 0 1 0.363832,0.363832 z M 1.7527863,91.991409 A 0.30961779,0.30961779 0 0 1 1.4431685,92.301027 0.30961779,0.30961779 0 0 1 1.1335507,91.991409 0.30961779,0.30961779 0 0 1 1.4431685,91.681792 0.30961779,0.30961779 0 0 1 1.7527863,91.991409 Z M 99.423776,36.271629 a 0.36383191,0.36383191 0 0 1 -0.363832,0.363832 0.36383191,0.36383191 0 0 1 -0.363832,-0.363832 0.36383191,0.36383191 0 0 1 0.363832,-0.363832 0.36383191,0.36383191 0 0 1 0.363832,0.363832 z m -2.410995,5.724911 a 0.36383191,0.36383191 0 0 1 -0.363832,0.363832 0.36383191,0.36383191 0 0 1 -0.363832,-0.363832 0.36383191,0.36383191 0 0 1 0.363832,-0.363832 0.36383191,0.36383191 0 0 1 0.363832,0.363832 z M 99.74106,6.4710894 A 0.30961779,0.30961779 0 0 1 99.431442,6.7807072 0.30961779,0.30961779 0 0 1 99.121824,6.4710894 0.30961779,0.30961779 0 0 1 99.431442,6.1614716 0.30961779,0.30961779 0 0 1 99.74106,6.4710894 Z M 47.223176,133.54153 a 0.36383191,0.36383191 0 0 1 -0.363832,0.36384 0.36383191,0.36383191 0 0 1 -0.363831,-0.36384 0.36383191,0.36383191 0 0 1 0.363831,-0.36383 0.36383191,0.36383191 0 0 1 0.363832,0.36383 z M 1.6116965,69.694435 A 0.36383191,0.36383191 0 0 1 1.2478646,70.058267 0.36383191,0.36383191 0 0 1 0.8840327,69.694435 0.36383191,0.36383191 0 0 1 1.2478646,69.330603 0.36383191,0.36383191 0 0 1 1.6116965,69.694435 Z M 71.126169,67.731171 a 0.30961779,0.30961779 0 0 1 -0.309618,0.309617 0.30961779,0.30961779 0 0 1 -0.309618,-0.309617 0.30961779,0.30961779 0 0 1 0.309618,-0.309618 0.30961779,0.30961779 0 0 1 0.309618,0.309618 z M 41.672868,88.225594 a 0.36383191,0.36383191 0 0 1 -0.363832,0.363831 0.36383191,0.36383191 0 0 1 -0.363832,-0.363831 0.36383191,0.36383191 0 0 1 0.363832,-0.363832 0.36383191,0.36383191 0 0 1 0.363832,0.363832 z M 25.757543,114.40001 a 0.47602803,0.47602803 0 0 1 -0.476028,0.47603 0.47602803,0.47602803 0 0 1 -0.476028,-0.47603 0.47602803,0.47602803 0 0 1 0.476028,-0.47603 0.47602803,0.47602803 0 0 1 0.476028,0.47603 z M 96.085189,0.93063855 a 0.22704987,0.22704987 0 0 1 -0.22705,0.22704985 0.22704987,0.22704987 0 0 1 -0.22705,-0.22704985 0.22704987,0.22704987 0 0 1 0.22705,-0.22704987 0.22704987,0.22704987 0 0 1 0.22705,0.22704987 z M 95.781108,25.41502 a 0.24408998,0.24408998 0 0 1 -0.24409,0.24409 0.24408998,0.24408998 0 0 1 -0.24409,-0.24409 0.24408998,0.24408998 0 0 1 0.24409,-0.24409 0.24408998,0.24408998 0 0 1 0.24409,0.24409 z M 3.465701,104.53388 a 0.36383191,0.36383191 0 0 1 -0.3638319,0.36383 0.36383191,0.36383191 0 0 1 -0.3638319,-0.36383 0.36383191,0.36383191 0 0 1 0.3638319,-0.36383 0.36383191,0.36383191 0 0 1 0.3638319,0.36383 z M 69.300798,60.204109 a 0.30961779,0.30961779 0 0 1 -0.309618,0.309618 0.30961779,0.30961779 0 0 1 -0.309617,-0.309618 0.30961779,0.30961779 0 0 1 0.309617,-0.309618 0.30961779,0.30961779 0 0 1 0.309618,0.309618 z M 14.224463,126.74072 a 0.36383191,0.36383191 0 0 1 -0.363832,0.36383 0.36383191,0.36383191 0 0 1 -0.363832,-0.36383 0.36383191,0.36383191 0 0 1 0.363832,-0.36383 0.36383191,0.36383191 0 0 1 0.363832,0.36383 z m 69.183261,-0.24889 a 0.36383191,0.36383191 0 0 1 -0.363832,0.36383 0.36383191,0.36383191 0 0 1 -0.363832,-0.36383 0.36383191,0.36383191 0 0 1 0.363832,-0.36383 0.36383191,0.36383191 0 0 1 0.363832,0.36383 z M 29.370615,55.445049 a 0.30961779,0.30961779 0 0 1 -0.309618,0.309618 0.30961779,0.30961779 0 0 1 -0.309618,-0.309618 0.30961779,0.30961779 0 0 1 0.309618,-0.309618 0.30961779,0.30961779 0 0 1 0.309618,0.309618 z M 43.40365,71.008606 a 0.36383191,0.36383191 0 0 1 -0.363832,0.363832 0.36383191,0.36383191 0 0 1 -0.363832,-0.363832 0.36383191,0.36383191 0 0 1 0.363832,-0.363832 0.36383191,0.36383191 0 0 1 0.363832,0.363832 z M 99.43448,27.149155 a 0.36383191,0.36383191 0 0 1 -0.363832,0.363832 0.36383191,0.36383191 0 0 1 -0.363832,-0.363832 0.36383191,0.36383191 0 0 1 0.363832,-0.363832 0.36383191,0.36383191 0 0 1 0.363832,0.363832 z M 9.3739679,120.24681 a 0.30961779,0.30961779 0 0 1 -0.3096178,0.30962 0.30961779,0.30961779 0 0 1 -0.3096178,-0.30962 0.30961779,0.30961779 0 0 1 0.3096178,-0.30962 0.30961779,0.30961779 0 0 1 0.3096178,0.30962 z M 85.713411,8.6108971 A 0.36383191,0.36383191 0 0 1 85.349579,8.974729 0.36383191,0.36383191 0 0 1 84.985747,8.6108971 0.36383191,0.36383191 0 0 1 85.349579,8.2470652 0.36383191,0.36383191 0 0 1 85.713411,8.6108971 Z M 82.085641,134.45024 a 0.36383191,0.36383191 0 0 1 -0.363832,0.36383 0.36383191,0.36383191 0 0 1 -0.363832,-0.36383 0.36383191,0.36383191 0 0 1 0.363832,-0.36383 0.36383191,0.36383191 0 0 1 0.363832,0.36383 z m 4.732323,-17.39345 a 0.30961779,0.30961779 0 0 1 -0.309617,0.30962 0.30961779,0.30961779 0 0 1 -0.309618,-0.30962 0.30961779,0.30961779 0 0 1 0.309618,-0.30961 0.30961779,0.30961779 0 0 1 0.309617,0.30961 z M 24.897489,8.9295101 A 0.36383191,0.36383191 0 0 1 24.533657,9.293342 0.36383191,0.36383191 0 0 1 24.169825,8.9295101 0.36383191,0.36383191 0 0 1 24.533657,8.5656782 0.36383191,0.36383191 0 0 1 24.897489,8.9295101 Z M 4.4952798,58.869926 a 0.47602803,0.47602803 0 0 1 -0.476028,0.476028 0.47602803,0.47602803 0 0 1 -0.476028,-0.476028 0.47602803,0.47602803 0 0 1 0.476028,-0.476028 0.47602803,0.47602803 0 0 1 0.476028,0.476028 z M 60.034755,122.57983 a 0.22704987,0.22704987 0 0 1 -0.22705,0.22705 0.22704987,0.22704987 0 0 1 -0.22705,-0.22705 0.22704987,0.22704987 0 0 1 0.22705,-0.22705 0.22704987,0.22704987 0 0 1 0.22705,0.22705 z M 18.010672,52.621086 a 0.24408998,0.24408998 0 0 1 -0.24409,0.24409 0.24408998,0.24408998 0 0 1 -0.244089,-0.24409 0.24408998,0.24408998 0 0 1 0.244089,-0.24409 0.24408998,0.24408998 0 0 1 0.24409,0.24409 z m -3.665644,23.711395 a 0.36383191,0.36383191 0 0 1 -0.363832,0.363832 0.36383191,0.36383191 0 0 1 -0.363832,-0.363832 0.36383191,0.36383191 0 0 1 0.363832,-0.363832 0.36383191,0.36383191 0 0 1 0.363832,0.363832 z m 6.28166,-61.608006 a 0.30961779,0.30961779 0 0 1 -0.309618,0.309618 0.30961779,0.30961779 0 0 1 -0.309618,-0.309618 0.30961779,0.30961779 0 0 1 0.309618,-0.309618 0.30961779,0.30961779 0 0 1 0.309618,0.309618 z m -0.61521,21.684094 a 0.36383191,0.36383191 0 0 1 -0.363832,0.363832 0.36383191,0.36383191 0 0 1 -0.363832,-0.363832 0.36383191,0.36383191 0 0 1 0.363832,-0.363832 0.36383191,0.36383191 0 0 1 0.363832,0.363832 z m 58.758039,10.648815 a 0.36383191,0.36383191 0 0 1 -0.363832,0.363832 0.36383191,0.36383191 0 0 1 -0.363831,-0.363832 0.36383191,0.36383191 0 0 1 0.363831,-0.363831 0.36383191,0.36383191 0 0 1 0.363832,0.363831 z M 46.190401,96.049133 a 0.30961779,0.30961779 0 0 1 -0.309618,0.309618 0.30961779,0.30961779 0 0 1 -0.309618,-0.309618 0.30961779,0.30961779 0 0 1 0.309618,-0.309617 0.30961779,0.30961779 0 0 1 0.309618,0.309617 z M 71.775377,19.457937 a 0.36383191,0.36383191 0 0 1 -0.363832,0.363832 0.36383191,0.36383191 0 0 1 -0.363832,-0.363832 0.36383191,0.36383191 0 0 1 0.363832,-0.363832 0.36383191,0.36383191 0 0 1 0.363832,0.363832 z m 3.172249,19.008024 a 0.36383191,0.36383191 0 0 1 -0.363832,0.363832 0.36383191,0.36383191 0 0 1 -0.363832,-0.363832 0.36383191,0.36383191 0 0 1 0.363832,-0.363831 0.36383191,0.36383191 0 0 1 0.363832,0.363831 z M 27.189144,22.785473 a 0.30961779,0.30961779 0 0 1 -0.309618,0.309618 0.30961779,0.30961779 0 0 1 -0.309618,-0.309618 0.30961779,0.30961779 0 0 1 0.309618,-0.309618 0.30961779,0.30961779 0 0 1 0.309618,0.309618 z m 29.087995,8.170206 a 0.36383191,0.36383191 0 0 1 -0.363832,0.363832 0.36383191,0.36383191 0 0 1 -0.363832,-0.363832 0.36383191,0.36383191 0 0 1 0.363832,-0.363832 0.36383191,0.36383191 0 0 1 0.363832,0.363832 z m -3.831108,-7.044075 a 0.36383191,0.36383191 0 0 1 -0.363832,0.363832 0.36383191,0.36383191 0 0 1 -0.363832,-0.363832 0.36383191,0.36383191 0 0 1 0.363832,-0.363832 0.36383191,0.36383191 0 0 1 0.363832,0.363832 z M 28.141279,130.3526 a 0.30961779,0.30961779 0 0 1 -0.309618,0.30962 0.30961779,0.30961779 0 0 1 -0.309618,-0.30962 0.30961779,0.30961779 0 0 1 0.309618,-0.30962 0.30961779,0.30961779 0 0 1 0.309618,0.30962 z M 64.17801,112.34021 a 0.36383191,0.36383191 0 0 1 -0.363832,0.36383 0.36383191,0.36383191 0 0 1 -0.363831,-0.36383 0.36383191,0.36383191 0 0 1 0.363831,-0.36383 0.36383191,0.36383191 0 0 1 0.363832,0.36383 z M 36.892051,47.756435 a 0.47602803,0.47602803 0 0 1 -0.476028,0.476028 0.47602803,0.47602803 0 0 1 -0.476028,-0.476028 0.47602803,0.47602803 0 0 1 0.476028,-0.476028 0.47602803,0.47602803 0 0 1 0.476028,0.476028 z m 4.258144,92.704605 a 0.22704987,0.22704987 0 0 1 -0.22705,0.22705 0.22704987,0.22704987 0 0 1 -0.22705,-0.22705 0.22704987,0.22704987 0 0 1 0.22705,-0.22705 0.22704987,0.22704987 0 0 1 0.22705,0.22705 z M 22.254081,103.08723 a 0.24408998,0.24408998 0 0 1 -0.24409,0.24409 0.24408998,0.24408998 0 0 1 -0.24409,-0.24409 0.24408998,0.24408998 0 0 1 0.24409,-0.24409 0.24408998,0.24408998 0 0 1 0.24409,0.24409 z M 14.625066,53.677631 a 0.36383191,0.36383191 0 0 1 -0.363832,0.363832 0.36383191,0.36383191 0 0 1 -0.363832,-0.363832 0.36383191,0.36383191 0 0 1 0.363832,-0.363832 0.36383191,0.36383191 0 0 1 0.363832,0.363832 z M 58.229315,33.055809 a 0.30961779,0.30961779 0 0 1 -0.309618,0.309618 0.30961779,0.30961779 0 0 1 -0.309618,-0.309618 0.30961779,0.30961779 0 0 1 0.309618,-0.309618 0.30961779,0.30961779 0 0 1 0.309618,0.309618 z M 21.919341,48.622704 a 0.36383191,0.36383191 0 0 1 -0.363831,0.363831 0.36383191,0.36383191 0 0 1 -0.363832,-0.363831 0.36383191,0.36383191 0 0 1 0.363832,-0.363832 0.36383191,0.36383191 0 0 1 0.363831,0.363832 z M 0.51030634,108.4259 a 0.36383191,0.36383191 0 0 1 -0.3638319,0.36384 0.36383191,0.36383191 0 0 1 -0.36383191,-0.36384 0.36383191,0.36383191 0 0 1 0.36383191,-0.36383 0.36383191,0.36383191 0 0 1 0.3638319,0.36383 z M 53.822069,92.811264 a 0.30961779,0.30961779 0 0 1 -0.309618,0.309618 0.30961779,0.30961779 0 0 1 -0.309618,-0.309618 0.30961779,0.30961779 0 0 1 0.309618,-0.309618 0.30961779,0.30961779 0 0 1 0.309618,0.309618 z m 2.072525,-38.813873 a 0.36383191,0.36383191 0 0 1 -0.363832,0.363832 0.36383191,0.36383191 0 0 1 -0.363832,-0.363832 0.36383191,0.36383191 0 0 1 0.363832,-0.363832 0.36383191,0.36383191 0 0 1 0.363832,0.363832 z M 19.983777,86.968239 a 0.36383191,0.36383191 0 0 1 -0.363831,0.363832 0.36383191,0.36383191 0 0 1 -0.363832,-0.363832 0.36383191,0.36383191 0 0 1 0.363832,-0.363832 0.36383191,0.36383191 0 0 1 0.363831,0.363832 z M 90.138956,51.046207 a 0.30961779,0.30961779 0 0 1 -0.309618,0.309618 0.30961779,0.30961779 0 0 1 -0.309618,-0.309618 0.30961779,0.30961779 0 0 1 0.309618,-0.309617 0.30961779,0.30961779 0 0 1 0.309618,0.309617 z M 39.67489,52.037018 a 0.36383191,0.36383191 0 0 1 -0.363832,0.363832 0.36383191,0.36383191 0 0 1 -0.363832,-0.363832 0.36383191,0.36383191 0 0 1 0.363832,-0.363832 0.36383191,0.36383191 0 0 1 0.363832,0.363832 z m 22.408089,12.278641 a 0.36383191,0.36383191 0 0 1 -0.363832,0.363831 0.36383191,0.36383191 0 0 1 -0.363832,-0.363831 0.36383191,0.36383191 0 0 1 0.363832,-0.363832 0.36383191,0.36383191 0 0 1 0.363832,0.363832 z M 35.540102,99.783821 a 0.30961779,0.30961779 0 0 1 -0.309618,0.309619 0.30961779,0.30961779 0 0 1 -0.309618,-0.309619 0.30961779,0.30961779 0 0 1 0.309618,-0.309618 0.30961779,0.30961779 0 0 1 0.309618,0.309618 z M 26.446315,60.509163 a 0.36383191,0.36383191 0 0 1 -0.363832,0.363832 0.36383191,0.36383191 0 0 1 -0.363832,-0.363832 0.36383191,0.36383191 0 0 1 0.363832,-0.363832 0.36383191,0.36383191 0 0 1 0.363832,0.363832 z m 59.436177,77.351677 a 0.47602803,0.47602803 0 0 1 -0.476028,0.47603 0.47602803,0.47602803 0 0 1 -0.476028,-0.47603 0.47602803,0.47602803 0 0 1 0.476028,-0.47603 0.47602803,0.47602803 0 0 1 0.476028,0.47603 z M 63.595611,20.311062 a 0.22704987,0.22704987 0 0 1 -0.22705,0.22705 0.22704987,0.22704987 0 0 1 -0.22705,-0.22705 0.22704987,0.22704987 0 0 1 0.22705,-0.22705 0.22704987,0.22704987 0 0 1 0.22705,0.22705 z m 34.09756,51.748165 a 0.24408998,0.24408998 0 0 1 -0.24409,0.24409 0.24408998,0.24408998 0 0 1 -0.24409,-0.24409 0.24408998,0.24408998 0 0 1 0.24409,-0.24409 0.24408998,0.24408998 0 0 1 0.24409,0.24409 z M 83.217966,92.279976 a 0.36383191,0.36383191 0 0 1 -0.363832,0.363832 0.36383191,0.36383191 0 0 1 -0.363832,-0.363832 0.36383191,0.36383191 0 0 1 0.363832,-0.363832 0.36383191,0.36383191 0 0 1 0.363832,0.363832 z M 93.057001,4.2677183 a 0.30961779,0.30961779 0 0 1 -0.309618,0.3096178 0.30961779,0.30961779 0 0 1 -0.309618,-0.3096178 0.30961779,0.30961779 0 0 1 0.309618,-0.3096178 0.30961779,0.30961779 0 0 1 0.309618,0.3096178 z m -1.697815,-4.51622465 a 0.36383191,0.36383191 0 0 1 -0.363832,0.36383191 0.36383191,0.36383191 0 0 1 -0.363832,-0.36383191 0.36383191,0.36383191 0 0 1 0.363832,-0.36383191 0.36383191,0.36383191 0 0 1 0.363832,0.36383191 z M 82.046388,1.3167558 A 0.36383191,0.36383191 0 0 1 81.682556,1.6805877 0.36383191,0.36383191 0 0 1 81.318724,1.3167558 0.36383191,0.36383191 0 0 1 81.682556,0.95292386 0.36383191,0.36383191 0 0 1 82.046388,1.3167558 Z M 79.607683,22.077705 a 0.30961779,0.30961779 0 0 1 -0.309618,0.309618 0.30961779,0.30961779 0 0 1 -0.309618,-0.309618 0.30961779,0.30961779 0 0 1 0.309618,-0.309617 0.30961779,0.30961779 0 0 1 0.309618,0.309617 z m -30.40424,27.792126 a 0.36383191,0.36383191 0 0 1 -0.363832,0.363832 0.36383191,0.36383191 0 0 1 -0.363832,-0.363832 0.36383191,0.36383191 0 0 1 0.363832,-0.363832 0.36383191,0.36383191 0 0 1 0.363832,0.363832 z M 43.497594,31.185089 a 0.36383191,0.36383191 0 0 1 -0.363832,0.363832 0.36383191,0.36383191 0 0 1 -0.363832,-0.363832 0.36383191,0.36383191 0 0 1 0.363832,-0.363832 0.36383191,0.36383191 0 0 1 0.363832,0.363832 z M 21.58929,94.493599 a 0.30961779,0.30961779 0 0 1 -0.309617,0.309618 0.30961779,0.30961779 0 0 1 -0.309618,-0.309618 0.30961779,0.30961779 0 0 1 0.309618,-0.309618 0.30961779,0.30961779 0 0 1 0.309617,0.309618 z M 55.723062,14.356456 a 0.36383191,0.36383191 0 0 1 -0.363832,0.363832 0.36383191,0.36383191 0 0 1 -0.363832,-0.363832 0.36383191,0.36383191 0 0 1 0.363832,-0.363832 0.36383191,0.36383191 0 0 1 0.363832,0.363832 z m -4.14019,118.376434 a 0.36383191,0.36383191 0 0 1 -0.363832,0.36384 0.36383191,0.36383191 0 0 1 -0.363832,-0.36384 0.36383191,0.36383191 0 0 1 0.363832,-0.36383 0.36383191,0.36383191 0 0 1 0.363832,0.36383 z M 17.471094,118.19611 a 0.30961779,0.30961779 0 0 1 -0.309618,0.30962 0.30961779,0.30961779 0 0 1 -0.309618,-0.30962 0.30961779,0.30961779 0 0 1 0.309618,-0.30961 0.30961779,0.30961779 0 0 1 0.309618,0.30961 z M 21.20313,72.753761 a 0.36383191,0.36383191 0 0 1 -0.363832,0.363832 0.36383191,0.36383191 0 0 1 -0.363832,-0.363832 0.36383191,0.36383191 0 0 1 0.363832,-0.363832 0.36383191,0.36383191 0 0 1 0.363832,0.363832 z M 55.49464,45.934017 a 0.47602803,0.47602803 0 0 1 -0.476028,0.476028 0.47602803,0.47602803 0 0 1 -0.476028,-0.476028 0.47602803,0.47602803 0 0 1 0.476028,-0.476028 0.47602803,0.47602803 0 0 1 0.476028,0.476028 z m -8.805188,8.121178 a 0.22704987,0.22704987 0 0 1 -0.22705,0.22705 0.22704987,0.22704987 0 0 1 -0.22705,-0.22705 0.22704987,0.22704987 0 0 1 0.22705,-0.22705 0.22704987,0.22704987 0 0 1 0.22705,0.22705 z M 24.575328,105.49289 a 0.24408998,0.24408998 0 0 1 -0.24409,0.24409 0.24408998,0.24408998 0 0 1 -0.24409,-0.24409 0.24408998,0.24408998 0 0 1 0.24409,-0.24409 0.24408998,0.24408998 0 0 1 0.24409,0.24409 z m -3.084715,-9.921303 a 0.36383191,0.36383191 0 0 1 -0.363832,0.363832 0.36383191,0.36383191 0 0 1 -0.363831,-0.363832 0.36383191,0.36383191 0 0 1 0.363831,-0.363832 0.36383191,0.36383191 0 0 1 0.363832,0.363832 z m -6.234117,15.764433 a 0.30961779,0.30961779 0 0 1 -0.309618,0.30962 0.30961779,0.30961779 0 0 1 -0.309617,-0.30962 0.30961779,0.30961779 0 0 1 0.309617,-0.30962 0.30961779,0.30961779 0 0 1 0.309618,0.30962 z M 91.616907,42.371334 a 0.36383191,0.36383191 0 0 1 -0.363832,0.363832 0.36383191,0.36383191 0 0 1 -0.363832,-0.363832 0.36383191,0.36383191 0 0 1 0.363832,-0.363832 0.36383191,0.36383191 0 0 1 0.363832,0.363832 z M 3.6005386,67.795395 A 0.36383191,0.36383191 0 0 1 3.2367067,68.159227 0.36383191,0.36383191 0 0 1 2.8728748,67.795395 0.36383191,0.36383191 0 0 1 3.2367067,67.431563 0.36383191,0.36383191 0 0 1 3.6005386,67.795395 Z M 17.674148,53.323429 a 0.30961779,0.30961779 0 0 1 -0.309617,0.309618 0.30961779,0.30961779 0 0 1 -0.309618,-0.309618 0.30961779,0.30961779 0 0 1 0.309618,-0.309618 0.30961779,0.30961779 0 0 1 0.309617,0.309618 z M 9.7788481,118.44642 a 0.36383191,0.36383191 0 0 1 -0.3638319,0.36383 0.36383191,0.36383191 0 0 1 -0.3638319,-0.36383 0.36383191,0.36383191 0 0 1 0.3638319,-0.36383 0.36383191,0.36383191 0 0 1 0.3638319,0.36383 z M 0.4551183,49.976048 A 0.36383191,0.36383191 0 0 1 0.09128639,50.339879 0.36383191,0.36383191 0 0 1 -0.27254552,49.976048 0.36383191,0.36383191 0 0 1 0.09128639,49.612216 0.36383191,0.36383191 0 0 1 0.4551183,49.976048 Z M 63.296446,136.13237 a 0.30961779,0.30961779 0 0 1 -0.309618,0.30962 0.30961779,0.30961779 0 0 1 -0.309618,-0.30962 0.30961779,0.30961779 0 0 1 0.309618,-0.30962 0.30961779,0.30961779 0 0 1 0.309618,0.30962 z M 31.553527,101.19596 a 0.36383191,0.36383191 0 0 1 -0.363832,0.36383 0.36383191,0.36383191 0 0 1 -0.363832,-0.36383 0.36383191,0.36383191 0 0 1 0.363832,-0.36383 0.36383191,0.36383191 0 0 1 0.363832,0.36383 z M 99.333948,43.5994 A 0.36383191,0.36383191 0 0 1 98.970116,43.963231 0.36383191,0.36383191 0 0 1 98.606284,43.5994 0.36383191,0.36383191 0 0 1 98.970116,43.235568 0.36383191,0.36383191 0 0 1 99.333948,43.5994 Z M 62.999452,16.028587 a 0.30961779,0.30961779 0 0 1 -0.309617,0.309618 0.30961779,0.30961779 0 0 1 -0.309618,-0.309618 0.30961779,0.30961779 0 0 1 0.309618,-0.309617 0.30961779,0.30961779 0 0 1 0.309617,0.309617 z M 34.63635,133.09917 a 0.36383191,0.36383191 0 0 1 -0.363832,0.36383 0.36383191,0.36383191 0 0 1 -0.363832,-0.36383 0.36383191,0.36383191 0 0 1 0.363832,-0.36384 0.36383191,0.36383191 0 0 1 0.363832,0.36384 z M 14.870441,49.222076 a 0.47602803,0.47602803 0 0 1 -0.476028,0.476028 0.47602803,0.47602803 0 0 1 -0.476028,-0.476028 0.47602803,0.47602803 0 0 1 0.476028,-0.476028 0.47602803,0.47602803 0 0 1 0.476028,0.476028 z m 11.508018,-9.199089 a 0.22704987,0.22704987 0 0 1 -0.22705,0.22705 0.22704987,0.22704987 0 0 1 -0.22705,-0.22705 0.22704987,0.22704987 0 0 1 0.22705,-0.22705 0.22704987,0.22704987 0 0 1 0.22705,0.22705 z m 53.639664,-5.143055 a 0.24408998,0.24408998 0 0 1 -0.24409,0.24409 0.24408998,0.24408998 0 0 1 -0.24409,-0.24409 0.24408998,0.24408998 0 0 1 0.24409,-0.24409 0.24408998,0.24408998 0 0 1 0.24409,0.24409 z M 66.138002,132.87199 a 0.36383191,0.36383191 0 0 1 -0.363832,0.36384 0.36383191,0.36383191 0 0 1 -0.363832,-0.36384 0.36383191,0.36383191 0 0 1 0.363832,-0.36383 0.36383191,0.36383191 0 0 1 0.363832,0.36383 z M 80.88125,17.430182 a 0.30961779,0.30961779 0 0 1 -0.309618,0.309617 0.30961779,0.30961779 0 0 1 -0.309617,-0.309617 0.30961779,0.30961779 0 0 1 0.309617,-0.309618 0.30961779,0.30961779 0 0 1 0.309618,0.309618 z m 4.96495,69.665513 a 0.36383191,0.36383191 0 0 1 -0.363832,0.363832 0.36383191,0.36383191 0 0 1 -0.363831,-0.363832 0.36383191,0.36383191 0 0 1 0.363831,-0.363831 0.36383191,0.36383191 0 0 1 0.363832,0.363831 z M 70.788217,108.24998 a 0.36383191,0.36383191 0 0 1 -0.363832,0.36383 0.36383191,0.36383191 0 0 1 -0.363832,-0.36383 0.36383191,0.36383191 0 0 1 0.363832,-0.36383 0.36383191,0.36383191 0 0 1 0.363832,0.36383 z M 94.296274,66.142319 a 0.30961779,0.30961779 0 0 1 -0.309618,0.309618 0.30961779,0.30961779 0 0 1 -0.309618,-0.309618 0.30961779,0.30961779 0 0 1 0.309618,-0.309618 0.30961779,0.30961779 0 0 1 0.309618,0.309618 z M 27.890821,9.7472296 A 0.36383191,0.36383191 0 0 1 27.526989,10.111061 0.36383191,0.36383191 0 0 1 27.163157,9.7472296 0.36383191,0.36383191 0 0 1 27.526989,9.3833977 0.36383191,0.36383191 0 0 1 27.890821,9.7472296 Z M 69.123903,133.73759 a 0.36383191,0.36383191 0 0 1 -0.363832,0.36384 0.36383191,0.36383191 0 0 1 -0.363832,-0.36384 0.36383191,0.36383191 0 0 1 0.363832,-0.36383 0.36383191,0.36383191 0 0 1 0.363832,0.36383 z m 22.097145,-32.73056 a 0.30961779,0.30961779 0 0 1 -0.309618,0.30961 0.30961779,0.30961779 0 0 1 -0.309617,-0.30961 0.30961779,0.30961779 0 0 1 0.309617,-0.30962 0.30961779,0.30961779 0 0 1 0.309618,0.30962 z M 32.082305,68.419746 a 0.36383191,0.36383191 0 0 1 -0.363832,0.363832 0.36383191,0.36383191 0 0 1 -0.363831,-0.363832 0.36383191,0.36383191 0 0 1 0.363831,-0.363832 0.36383191,0.36383191 0 0 1 0.363832,0.363832 z m 22.996527,50.938604 a 0.36383191,0.36383191 0 0 1 -0.363832,0.36383 0.36383191,0.36383191 0 0 1 -0.363832,-0.36383 0.36383191,0.36383191 0 0 1 0.363832,-0.36383 0.36383191,0.36383191 0 0 1 0.363832,0.36383 z m 29.296421,-14.05781 a 0.30961779,0.30961779 0 0 1 -0.309617,0.30961 0.30961779,0.30961779 0 0 1 -0.309618,-0.30961 0.30961779,0.30961779 0 0 1 0.309618,-0.30962 0.30961779,0.30961779 0 0 1 0.309617,0.30962 z M 56.811807,41.951065 a 0.36383191,0.36383191 0 0 1 -0.363832,0.363832 0.36383191,0.36383191 0 0 1 -0.363832,-0.363832 0.36383191,0.36383191 0 0 1 0.363832,-0.363832 0.36383191,0.36383191 0 0 1 0.363832,0.363832 z m 32.977461,53.811539 a 0.47602803,0.47602803 0 0 1 -0.476028,0.476028 0.47602803,0.47602803 0 0 1 -0.476028,-0.476028 0.47602803,0.47602803 0 0 1 0.476028,-0.476028 0.47602803,0.47602803 0 0 1 0.476028,0.476028 z M 32.951785,62.509651 a 0.22704987,0.22704987 0 0 1 -0.22705,0.22705 0.22704987,0.22704987 0 0 1 -0.22705,-0.22705 0.22704987,0.22704987 0 0 1 0.22705,-0.22705 0.22704987,0.22704987 0 0 1 0.22705,0.22705 z m 64.308067,29.309723 a 0.24408998,0.24408998 0 0 1 -0.24409,0.24409 0.24408998,0.24408998 0 0 1 -0.24409,-0.24409 0.24408998,0.24408998 0 0 1 0.24409,-0.24409 0.24408998,0.24408998 0 0 1 0.24409,0.24409 z M 44.963991,9.9444523 A 0.36383191,0.36383191 0 0 1 44.600159,10.308284 0.36383191,0.36383191 0 0 1 44.236327,9.9444523 0.36383191,0.36383191 0 0 1 44.600159,9.5806204 0.36383191,0.36383191 0 0 1 44.963991,9.9444523 Z M 90.215944,2.0148995 A 0.30961779,0.30961779 0 0 1 89.906326,2.3245173 0.30961779,0.30961779 0 0 1 89.596709,2.0148995 0.30961779,0.30961779 0 0 1 89.906326,1.7052817 0.30961779,0.30961779 0 0 1 90.215944,2.0148995 Z M 63.529684,133.47424 a 0.36383191,0.36383191 0 0 1 -0.363832,0.36384 0.36383191,0.36383191 0 0 1 -0.363832,-0.36384 0.36383191,0.36383191 0 0 1 0.363832,-0.36383 0.36383191,0.36383191 0 0 1 0.363832,0.36383 z M 56.578889,92.76506 a 0.36383191,0.36383191 0 0 1 -0.363832,0.363832 0.36383191,0.36383191 0 0 1 -0.363832,-0.363832 0.36383191,0.36383191 0 0 1 0.363832,-0.363831 0.36383191,0.36383191 0 0 1 0.363832,0.363831 z m 13.40265,-44.636612 a 0.30961779,0.30961779 0 0 1 -0.309618,0.309618 0.30961779,0.30961779 0 0 1 -0.309618,-0.309618 0.30961779,0.30961779 0 0 1 0.309618,-0.309617 0.30961779,0.30961779 0 0 1 0.309618,0.309617 z m 1.543616,-35.618232 a 0.36383191,0.36383191 0 0 1 -0.363831,0.363832 0.36383191,0.36383191 0 0 1 -0.363832,-0.363832 0.36383191,0.36383191 0 0 1 0.363832,-0.363832 0.36383191,0.36383191 0 0 1 0.363831,0.363832 z M 21.709548,61.196705 a 0.36383191,0.36383191 0 0 1 -0.363832,0.363832 0.36383191,0.36383191 0 0 1 -0.363831,-0.363832 0.36383191,0.36383191 0 0 1 0.363831,-0.363832 0.36383191,0.36383191 0 0 1 0.363832,0.363832 z m 46.292933,24.753437 a 0.30961779,0.30961779 0 0 1 -0.309618,0.309618 0.30961779,0.30961779 0 0 1 -0.309617,-0.309618 0.30961779,0.30961779 0 0 1 0.309617,-0.309618 0.30961779,0.30961779 0 0 1 0.309618,0.309618 z M 83.427759,28.720037 a 0.36383191,0.36383191 0 0 1 -0.363832,0.363832 0.36383191,0.36383191 0 0 1 -0.363832,-0.363832 0.36383191,0.36383191 0 0 1 0.363832,-0.363831 0.36383191,0.36383191 0 0 1 0.363832,0.363831 z m 1.310585,5.129328 a 0.36383191,0.36383191 0 0 1 -0.363832,0.363832 0.36383191,0.36383191 0 0 1 -0.363832,-0.363832 0.36383191,0.36383191 0 0 1 0.363832,-0.363832 0.36383191,0.36383191 0 0 1 0.363832,0.363832 z M 51.158239,101.32496 a 0.30961779,0.30961779 0 0 1 -0.309618,0.30962 0.30961779,0.30961779 0 0 1 -0.309617,-0.30962 0.30961779,0.30961779 0 0 1 0.309617,-0.30962 0.30961779,0.30961779 0 0 1 0.309618,0.30962 z M 75.159448,74.368507 a 0.36383191,0.36383191 0 0 1 -0.363832,0.363832 0.36383191,0.36383191 0 0 1 -0.363832,-0.363832 0.36383191,0.36383191 0 0 1 0.363832,-0.363832 0.36383191,0.36383191 0 0 1 0.363832,0.363832 z M 57.933422,37.200062 a 0.47602803,0.47602803 0 0 1 -0.476028,0.476028 0.47602803,0.47602803 0 0 1 -0.476028,-0.476028 0.47602803,0.47602803 0 0 1 0.476028,-0.476028 0.47602803,0.47602803 0 0 1 0.476028,0.476028 z m -0.946233,59.134121 a 0.22704987,0.22704987 0 0 1 -0.22705,0.22705 0.22704987,0.22704987 0 0 1 -0.227049,-0.22705 0.22704987,0.22704987 0 0 1 0.227049,-0.22705 0.22704987,0.22704987 0 0 1 0.22705,0.22705 z M 71.811091,73.426476 a 0.24408998,0.24408998 0 0 1 -0.24409,0.24409 0.24408998,0.24408998 0 0 1 -0.24409,-0.24409 0.24408998,0.24408998 0 0 1 0.24409,-0.24409 0.24408998,0.24408998 0 0 1 0.24409,0.24409 z M 28.125577,0.61964256 a 0.36383191,0.36383191 0 0 1 -0.363832,0.3638319 0.36383191,0.36383191 0 0 1 -0.363831,-0.3638319 0.36383191,0.36383191 0 0 1 0.363831,-0.36383191 0.36383191,0.36383191 0 0 1 0.363832,0.36383191 z M 95.60988,12.773584 a 0.30961779,0.30961779 0 0 1 -0.309618,0.309618 0.30961779,0.30961779 0 0 1 -0.309617,-0.309618 0.30961779,0.30961779 0 0 1 0.309617,-0.309617 0.30961779,0.30961779 0 0 1 0.309618,0.309617 z M 11.714023,76.127998 a 0.36383191,0.36383191 0 0 1 -0.363832,0.363832 0.36383191,0.36383191 0 0 1 -0.363832,-0.363832 0.36383191,0.36383191 0 0 1 0.363832,-0.363832 0.36383191,0.36383191 0 0 1 0.363832,0.363832 z m 69.028105,19.840737 a 0.36383191,0.36383191 0 0 1 -0.363832,0.363832 0.36383191,0.36383191 0 0 1 -0.363832,-0.363832 0.36383191,0.36383191 0 0 1 0.363832,-0.363832 0.36383191,0.36383191 0 0 1 0.363832,0.363832 z m 17.480705,0.210762 a 0.30961779,0.30961779 0 0 1 -0.309617,0.309618 0.30961779,0.30961779 0 0 1 -0.309618,-0.309618 0.30961779,0.30961779 0 0 1 0.309618,-0.309618 0.30961779,0.30961779 0 0 1 0.309617,0.309618 z M 52.081502,57.202625 a 0.36383191,0.36383191 0 0 1 -0.363832,0.363832 0.36383191,0.36383191 0 0 1 -0.363831,-0.363832 0.36383191,0.36383191 0 0 1 0.363831,-0.363832 0.36383191,0.36383191 0 0 1 0.363832,0.363832 z M 0.20872886,118.31673 a 0.36383191,0.36383191 0 0 1 -0.3638319,0.36383 0.36383191,0.36383191 0 0 1 -0.36383191,-0.36383 0.36383191,0.36383191 0 0 1 0.36383191,-0.36384 0.36383191,0.36383191 0 0 1 0.3638319,0.36384 z M 47.10362,94.749802 a 0.30961779,0.30961779 0 0 1 -0.309617,0.309617 0.30961779,0.30961779 0 0 1 -0.309618,-0.309617 0.30961779,0.30961779 0 0 1 0.309618,-0.309618 0.30961779,0.30961779 0 0 1 0.309617,0.309618 z M 5.7599482,14.986995 a 0.36383191,0.36383191 0 0 1 -0.3638319,0.363832 0.36383191,0.36383191 0 0 1 -0.363832,-0.363832 0.36383191,0.36383191 0 0 1 0.363832,-0.363832 0.36383191,0.36383191 0 0 1 0.3638319,0.363832 z M 32.54059,72.228714 a 0.36383191,0.36383191 0 0 1 -0.363832,0.363832 0.36383191,0.36383191 0 0 1 -0.363832,-0.363832 0.36383191,0.36383191 0 0 1 0.363832,-0.363832 0.36383191,0.36383191 0 0 1 0.363832,0.363832 z M 92.992014,50.517403 a 0.30961779,0.30961779 0 0 1 -0.309618,0.309617 0.30961779,0.30961779 0 0 1 -0.309618,-0.309617 0.30961779,0.30961779 0 0 1 0.309618,-0.309618 0.30961779,0.30961779 0 0 1 0.309618,0.309618 z m 3.162834,-4.296875 a 0.36383191,0.36383191 0 0 1 -0.363832,0.363832 0.36383191,0.36383191 0 0 1 -0.363832,-0.363832 0.36383191,0.36383191 0 0 1 0.363832,-0.363832 0.36383191,0.36383191 0 0 1 0.363832,0.363832 z M 76.31768,27.743856 a 0.47602803,0.47602803 0 0 1 -0.476028,0.476028 0.47602803,0.47602803 0 0 1 -0.476028,-0.476028 0.47602803,0.47602803 0 0 1 0.476028,-0.476028 0.47602803,0.47602803 0 0 1 0.476028,0.476028 z m 1.034225,27.333502 a 0.22704987,0.22704987 0 0 1 -0.22705,0.22705 0.22704987,0.22704987 0 0 1 -0.22705,-0.22705 0.22704987,0.22704987 0 0 1 0.22705,-0.22705 0.22704987,0.22704987 0 0 1 0.22705,0.22705 z M 50.142352,78.352776 a 0.24408998,0.24408998 0 0 1 -0.24409,0.24409 0.24408998,0.24408998 0 0 1 -0.24409,-0.24409 0.24408998,0.24408998 0 0 1 0.24409,-0.24409 0.24408998,0.24408998 0 0 1 0.24409,0.24409 z M 5.6102857,86.494812 A 0.36383191,0.36383191 0 0 1 5.2464538,86.858644 0.36383191,0.36383191 0 0 1 4.8826219,86.494812 0.36383191,0.36383191 0 0 1 5.2464538,86.13098 0.36383191,0.36383191 0 0 1 5.6102857,86.494812 Z M 19.974005,59.829819 a 0.30961779,0.30961779 0 0 1 -0.309618,0.309618 0.30961779,0.30961779 0 0 1 -0.309618,-0.309618 0.30961779,0.30961779 0 0 1 0.309618,-0.309618 0.30961779,0.30961779 0 0 1 0.309618,0.309618 z M 83.071252,7.1507688 A 0.36383191,0.36383191 0 0 1 82.70742,7.5146007 0.36383191,0.36383191 0 0 1 82.343588,7.1507688 0.36383191,0.36383191 0 0 1 82.70742,6.7869368 0.36383191,0.36383191 0 0 1 83.071252,7.1507688 Z M 4.7038559,86.2631 A 0.36383191,0.36383191 0 0 1 4.340024,86.626932 0.36383191,0.36383191 0 0 1 3.9761921,86.2631 0.36383191,0.36383191 0 0 1 4.340024,85.899268 0.36383191,0.36383191 0 0 1 4.7038559,86.2631 Z M 58.756323,7.6391077 A 0.30961779,0.30961779 0 0 1 58.446705,7.9487255 0.30961779,0.30961779 0 0 1 58.137087,7.6391077 0.30961779,0.30961779 0 0 1 58.446705,7.3294899 0.30961779,0.30961779 0 0 1 58.756323,7.6391077 Z M 37.807172,120.46964 a 0.36383191,0.36383191 0 0 1 -0.363832,0.36383 0.36383191,0.36383191 0 0 1 -0.363832,-0.36383 0.36383191,0.36383191 0 0 1 0.363832,-0.36383 0.36383191,0.36383191 0 0 1 0.363832,0.36383 z M 92.078714,92.452362 a 0.36383191,0.36383191 0 0 1 -0.363832,0.363832 0.36383191,0.36383191 0 0 1 -0.363832,-0.363832 0.36383191,0.36383191 0 0 1 0.363832,-0.363832 0.36383191,0.36383191 0 0 1 0.363832,0.363832 z M 55.172506,132.24937 a 0.30961779,0.30961779 0 0 1 -0.309618,0.30962 0.30961779,0.30961779 0 0 1 -0.309617,-0.30962 0.30961779,0.30961779 0 0 1 0.309617,-0.30961 0.30961779,0.30961779 0 0 1 0.309618,0.30961 z M 49.96256,78.282585 a 0.36383191,0.36383191 0 0 1 -0.363832,0.363832 0.36383191,0.36383191 0 0 1 -0.363832,-0.363832 0.36383191,0.36383191 0 0 1 0.363832,-0.363832 0.36383191,0.36383191 0 0 1 0.363832,0.363832 z M 89.681184,11.119902 a 0.36383191,0.36383191 0 0 1 -0.363832,0.363832 0.36383191,0.36383191 0 0 1 -0.363832,-0.363832 0.36383191,0.36383191 0 0 1 0.363832,-0.363832 0.36383191,0.36383191 0 0 1 0.363832,0.363832 z m -0.323547,41.192896 a 0.30961779,0.30961779 0 0 1 -0.309618,0.309617 0.30961779,0.30961779 0 0 1 -0.309617,-0.309617 0.30961779,0.30961779 0 0 1 0.309617,-0.309618 0.30961779,0.30961779 0 0 1 0.309618,0.309618 z M 0.411179,22.223385 A 0.36383191,0.36383191 0 0 1 0.04734709,22.587217 0.36383191,0.36383191 0 0 1 -0.31648482,22.223385 0.36383191,0.36383191 0 0 1 0.04734709,21.859553 0.36383191,0.36383191 0 0 1 0.411179,22.223385 Z m 68.809585,9.611276 a 0.47602803,0.47602803 0 0 1 -0.476028,0.476029 0.47602803,0.47602803 0 0 1 -0.476028,-0.476029 0.47602803,0.47602803 0 0 1 0.476028,-0.476028 0.47602803,0.47602803 0 0 1 0.476028,0.476028 z m 5.363334,49.466845 a 0.22704987,0.22704987 0 0 1 -0.22705,0.22705 0.22704987,0.22704987 0 0 1 -0.22705,-0.22705 0.22704987,0.22704987 0 0 1 0.22705,-0.22705 0.22704987,0.22704987 0 0 1 0.22705,0.22705 z M 60.016723,62.173397 a 0.24408998,0.24408998 0 0 1 -0.24409,0.24409 0.24408998,0.24408998 0 0 1 -0.24409,-0.24409 0.24408998,0.24408998 0 0 1 0.24409,-0.24409 0.24408998,0.24408998 0 0 1 0.24409,0.24409 z m 30.609995,43.599863 a 0.36383191,0.36383191 0 0 1 -0.363832,0.36383 0.36383191,0.36383191 0 0 1 -0.363832,-0.36383 0.36383191,0.36383191 0 0 1 0.363832,-0.36383 0.36383191,0.36383191 0 0 1 0.363832,0.36383 z M 69.712686,99.083405 a 0.30961779,0.30961779 0 0 1 -0.309617,0.309617 0.30961779,0.30961779 0 0 1 -0.309618,-0.309617 0.30961779,0.30961779 0 0 1 0.309618,-0.309618 0.30961779,0.30961779 0 0 1 0.309617,0.309618 z m 28.588249,31.335665 a 0.36383191,0.36383191 0 0 1 -0.363832,0.36383 0.36383191,0.36383191 0 0 1 -0.363832,-0.36383 0.36383191,0.36383191 0 0 1 0.363832,-0.36383 0.36383191,0.36383191 0 0 1 0.363832,0.36383 z M 74.919771,98.478607 a 0.36383191,0.36383191 0 0 1 -0.363832,0.363832 0.36383191,0.36383191 0 0 1 -0.363832,-0.363832 0.36383191,0.36383191 0 0 1 0.363832,-0.363832 0.36383191,0.36383191 0 0 1 0.363832,0.363832 z M 56.051069,27.164904 a 0.30961779,0.30961779 0 0 1 -0.309618,0.309617 0.30961779,0.30961779 0 0 1 -0.309618,-0.309617 0.30961779,0.30961779 0 0 1 0.309618,-0.309618 0.30961779,0.30961779 0 0 1 0.309618,0.309618 z m 36.222965,28.067213 a 0.36383191,0.36383191 0 0 1 -0.363832,0.363832 0.36383191,0.36383191 0 0 1 -0.363832,-0.363832 0.36383191,0.36383191 0 0 1 0.363832,-0.363832 0.36383191,0.36383191 0 0 1 0.363832,0.363832 z M 58.511972,125.75947 a 0.36383191,0.36383191 0 0 1 -0.363832,0.36383 0.36383191,0.36383191 0 0 1 -0.363832,-0.36383 0.36383191,0.36383191 0 0 1 0.363832,-0.36383 0.36383191,0.36383191 0 0 1 0.363832,0.36383 z M 17.612577,66.643105 a 0.30961779,0.30961779 0 0 1 -0.309618,0.309617 0.30961779,0.30961779 0 0 1 -0.309617,-0.309617 0.30961779,0.30961779 0 0 1 0.309617,-0.309618 0.30961779,0.30961779 0 0 1 0.309618,0.309618 z m 44.561302,-20.71494 a 0.36383191,0.36383191 0 0 1 -0.363832,0.363832 0.36383191,0.36383191 0 0 1 -0.363832,-0.363832 0.36383191,0.36383191 0 0 1 0.363832,-0.363831 0.36383191,0.36383191 0 0 1 0.363832,0.363831 z m 21.285694,85.636825 a 0.36383191,0.36383191 0 0 1 -0.363832,0.36383 0.36383191,0.36383191 0 0 1 -0.363832,-0.36383 0.36383191,0.36383191 0 0 1 0.363832,-0.36383 0.36383191,0.36383191 0 0 1 0.363832,0.36383 z M 63.204836,15.493543 a 0.30961779,0.30961779 0 0 1 -0.309618,0.309617 0.30961779,0.30961779 0 0 1 -0.309618,-0.309617 0.30961779,0.30961779 0 0 1 0.309618,-0.309618 0.30961779,0.30961779 0 0 1 0.309618,0.309618 z M 2.7503592,114.68958 a 0.36383191,0.36383191 0 0 1 -0.3638319,0.36383 0.36383191,0.36383191 0 0 1 -0.3638319,-0.36383 0.36383191,0.36383191 0 0 1 0.3638319,-0.36383 0.36383191,0.36383191 0 0 1 0.3638319,0.36383 z m 11.8588898,-4.99205 a 0.47602803,0.47602803 0 0 1 -0.476028,0.47603 0.47602803,0.47602803 0 0 1 -0.476028,-0.47603 0.47602803,0.47602803 0 0 1 0.476028,-0.47603 0.47602803,0.47602803 0 0 1 0.476028,0.47603 z M 50.523044,3.4309728 a 0.22704987,0.22704987 0 0 1 -0.22705,0.2270499 0.22704987,0.22704987 0 0 1 -0.22705,-0.2270499 0.22704987,0.22704987 0 0 1 0.22705,-0.2270499 0.22704987,0.22704987 0 0 1 0.22705,0.2270499 z M 65.139941,38.39896 a 0.24408998,0.24408998 0 0 1 -0.24409,0.24409 0.24408998,0.24408998 0 0 1 -0.24409,-0.24409 0.24408998,0.24408998 0 0 1 0.24409,-0.24409 0.24408998,0.24408998 0 0 1 0.24409,0.24409 z M 35.02144,58.114414 a 0.36383191,0.36383191 0 0 1 -0.363832,0.363832 0.36383191,0.36383191 0 0 1 -0.363832,-0.363832 0.36383191,0.36383191 0 0 1 0.363832,-0.363832 0.36383191,0.36383191 0 0 1 0.363832,0.363832 z M 3.5291729,42.534298 A 0.30961779,0.30961779 0 0 1 3.2195551,42.843916 0.30961779,0.30961779 0 0 1 2.9099374,42.534298 0.30961779,0.30961779 0 0 1 3.2195551,42.22468 0.30961779,0.30961779 0 0 1 3.5291729,42.534298 Z m 13.8236381,9.305763 a 0.36383191,0.36383191 0 0 1 -0.363832,0.363832 0.36383191,0.36383191 0 0 1 -0.363832,-0.363832 0.36383191,0.36383191 0 0 1 0.363832,-0.363832 0.36383191,0.36383191 0 0 1 0.363832,0.363832 z M 69.769517,12.849385 a 0.36383191,0.36383191 0 0 1 -0.363832,0.363832 0.36383191,0.36383191 0 0 1 -0.363831,-0.363832 0.36383191,0.36383191 0 0 1 0.363831,-0.363832 0.36383191,0.36383191 0 0 1 0.363832,0.363832 z M 48.094385,106.13609 a 0.30961779,0.30961779 0 0 1 -0.309618,0.30962 0.30961779,0.30961779 0 0 1 -0.309618,-0.30962 0.30961779,0.30961779 0 0 1 0.309618,-0.30961 0.30961779,0.30961779 0 0 1 0.309618,0.30961 z M 10.861681,94.400299 a 0.36383191,0.36383191 0 0 1 -0.363832,0.363832 0.36383191,0.36383191 0 0 1 -0.363831,-0.363832 0.36383191,0.36383191 0 0 1 0.363831,-0.363832 0.36383191,0.36383191 0 0 1 0.363832,0.363832 z m 5.042498,-28.906006 a 0.36383191,0.36383191 0 0 1 -0.363832,0.363832 0.36383191,0.36383191 0 0 1 -0.363832,-0.363832 0.36383191,0.36383191 0 0 1 0.363832,-0.363832 0.36383191,0.36383191 0 0 1 0.363832,0.363832 z m 46.185655,8.122757 a 0.30961779,0.30961779 0 0 1 -0.309618,0.309618 0.30961779,0.30961779 0 0 1 -0.309618,-0.309618 0.30961779,0.30961779 0 0 1 0.309618,-0.309618 0.30961779,0.30961779 0 0 1 0.309618,0.309618 z m 3.824787,-28.816665 a 0.36383191,0.36383191 0 0 1 -0.363832,0.363831 0.36383191,0.36383191 0 0 1 -0.363832,-0.363831 0.36383191,0.36383191 0 0 1 0.363832,-0.363832 0.36383191,0.36383191 0 0 1 0.363832,0.363832 z M 44.221544,17.903412 a 0.36383191,0.36383191 0 0 1 -0.363832,0.363832 0.36383191,0.36383191 0 0 1 -0.363832,-0.363832 0.36383191,0.36383191 0 0 1 0.363832,-0.363832 0.36383191,0.36383191 0 0 1 0.363832,0.363832 z m 36.989159,30.118652 a 0.30961779,0.30961779 0 0 1 -0.309618,0.309618 0.30961779,0.30961779 0 0 1 -0.309618,-0.309618 0.30961779,0.30961779 0 0 1 0.309618,-0.309618 0.30961779,0.30961779 0 0 1 0.309618,0.309618 z M 13.395957,83.189865 a 0.36383191,0.36383191 0 0 1 -0.363832,0.363832 0.36383191,0.36383191 0 0 1 -0.363831,-0.363832 0.36383191,0.36383191 0 0 1 0.363831,-0.363832 0.36383191,0.36383191 0 0 1 0.363832,0.363832 z m -4.1911816,9.772072 a 0.47602803,0.47602803 0 0 1 -0.476028,0.476028 0.47602803,0.47602803 0 0 1 -0.4760281,-0.476028 0.47602803,0.47602803 0 0 1 0.4760281,-0.476028 0.47602803,0.47602803 0 0 1 0.476028,0.476028 z M 86.154517,24.740643 a 0.22704987,0.22704987 0 0 1 -0.22705,0.227049 0.22704987,0.22704987 0 0 1 -0.22705,-0.227049 0.22704987,0.22704987 0 0 1 0.22705,-0.22705 0.22704987,0.22704987 0 0 1 0.22705,0.22705 z m -7.772762,32.924758 a 0.24408998,0.24408998 0 0 1 -0.24409,0.24409 0.24408998,0.24408998 0 0 1 -0.24409,-0.24409 0.24408998,0.24408998 0 0 1 0.24409,-0.24409 0.24408998,0.24408998 0 0 1 0.24409,0.24409 z M 61.610647,11.479769 a 0.36383191,0.36383191 0 0 1 -0.363832,0.363832 0.36383191,0.36383191 0 0 1 -0.363832,-0.363832 0.36383191,0.36383191 0 0 1 0.363832,-0.363832 0.36383191,0.36383191 0 0 1 0.363832,0.363832 z M 82.13357,99.790535 a 0.30961779,0.30961779 0 0 1 -0.309618,0.309615 0.30961779,0.30961779 0 0 1 -0.309618,-0.309615 0.30961779,0.30961779 0 0 1 0.309618,-0.309618 0.30961779,0.30961779 0 0 1 0.309618,0.309618 z m 0.434096,-37.260113 a 0.36383191,0.36383191 0 0 1 -0.363831,0.363832 0.36383191,0.36383191 0 0 1 -0.363832,-0.363832 0.36383191,0.36383191 0 0 1 0.363832,-0.363832 0.36383191,0.36383191 0 0 1 0.363831,0.363832 z m -35.98946,69.796418 a 0.36383191,0.36383191 0 0 1 -0.363831,0.36384 0.36383191,0.36383191 0 0 1 -0.363832,-0.36384 0.36383191,0.36383191 0 0 1 0.363832,-0.36383 0.36383191,0.36383191 0 0 1 0.363831,0.36383 z M 97.700014,87.108009 a 0.30961779,0.30961779 0 0 1 -0.309618,0.309618 0.30961779,0.30961779 0 0 1 -0.309618,-0.309618 0.30961779,0.30961779 0 0 1 0.309618,-0.309617 0.30961779,0.30961779 0 0 1 0.309618,0.309617 z M 20.037115,33.501774 a 0.36383191,0.36383191 0 0 1 -0.363832,0.363832 0.36383191,0.36383191 0 0 1 -0.363832,-0.363832 0.36383191,0.36383191 0 0 1 0.363832,-0.363832 0.36383191,0.36383191 0 0 1 0.363832,0.363832 z M 59.00086,55.948727 a 0.36383191,0.36383191 0 0 1 -0.363832,0.363832 0.36383191,0.36383191 0 0 1 -0.363832,-0.363832 0.36383191,0.36383191 0 0 1 0.363832,-0.363832 0.36383191,0.36383191 0 0 1 0.363832,0.363832 z m 6.546398,51.002303 a 0.30961779,0.30961779 0 0 1 -0.309618,0.30961 0.30961779,0.30961779 0 0 1 -0.309617,-0.30961 0.30961779,0.30961779 0 0 1 0.309617,-0.30962 0.30961779,0.30961779 0 0 1 0.309618,0.30962 z M 22.841844,38.849995 a 0.36383191,0.36383191 0 0 1 -0.363832,0.363832 0.36383191,0.36383191 0 0 1 -0.363832,-0.363832 0.36383191,0.36383191 0 0 1 0.363832,-0.363832 0.36383191,0.36383191 0 0 1 0.363832,0.363832 z m 60.802353,5.689438 a 0.36383191,0.36383191 0 0 1 -0.363832,0.363831 0.36383191,0.36383191 0 0 1 -0.363832,-0.363831 0.36383191,0.36383191 0 0 1 0.363832,-0.363832 0.36383191,0.36383191 0 0 1 0.363832,0.363832 z M 76.996118,34.46743 a 0.30961779,0.30961779 0 0 1 -0.309617,0.309618 0.30961779,0.30961779 0 0 1 -0.309618,-0.309618 0.30961779,0.30961779 0 0 1 0.309618,-0.309618 0.30961779,0.30961779 0 0 1 0.309617,0.309618 z m -46.188986,76.82541 a 0.36383191,0.36383191 0 0 1 -0.363832,0.36383 0.36383191,0.36383191 0 0 1 -0.363832,-0.36383 0.36383191,0.36383191 0 0 1 0.363832,-0.36383 0.36383191,0.36383191 0 0 1 0.363832,0.36383 z m 0.01761,27.51588 a 0.47602803,0.47602803 0 0 1 -0.476028,0.47602 0.47602803,0.47602803 0 0 1 -0.476028,-0.47602 0.47602803,0.47602803 0 0 1 0.476028,-0.47603 0.47602803,0.47602803 0 0 1 0.476028,0.47603 z M 15.203717,67.153427 a 0.22704987,0.22704987 0 0 1 -0.22705,0.22705 0.22704987,0.22704987 0 0 1 -0.227049,-0.22705 0.22704987,0.22704987 0 0 1 0.227049,-0.22705 0.22704987,0.22704987 0 0 1 0.22705,0.22705 z M 61.650084,105.0146 a 0.24408998,0.24408998 0 0 1 -0.24409,0.24409 0.24408998,0.24408998 0 0 1 -0.24409,-0.24409 0.24408998,0.24408998 0 0 1 0.24409,-0.24409 0.24408998,0.24408998 0 0 1 0.24409,0.24409 z m 36.154994,13.70167 a 0.36383191,0.36383191 0 0 1 -0.363832,0.36383 0.36383191,0.36383191 0 0 1 -0.363832,-0.36383 0.36383191,0.36383191 0 0 1 0.363832,-0.36383 0.36383191,0.36383191 0 0 1 0.363832,0.36383 z M 8.4882181,115.55881 a 0.30961779,0.30961779 0 0 1 -0.3096178,0.30962 0.30961779,0.30961779 0 0 1 -0.3096178,-0.30962 0.30961779,0.30961779 0 0 1 0.3096178,-0.30962 0.30961779,0.30961779 0 0 1 0.3096178,0.30962 z m 0.6443411,-14.01212 a 0.36383191,0.36383191 0 0 1 -0.3638319,0.36383 0.36383191,0.36383191 0 0 1 -0.3638319,-0.36383 0.36383191,0.36383191 0 0 1 0.3638319,-0.36383 0.36383191,0.36383191 0 0 1 0.3638319,0.36383 z M 53.803415,44.904083 a 0.36383191,0.36383191 0 0 1 -0.363832,0.363832 0.36383191,0.36383191 0 0 1 -0.363832,-0.363832 0.36383191,0.36383191 0 0 1 0.363832,-0.363832 0.36383191,0.36383191 0 0 1 0.363832,0.363832 z m 7.470394,35.023407 a 0.30961779,0.30961779 0 0 1 -0.309618,0.309618 0.30961779,0.30961779 0 0 1 -0.309617,-0.309618 0.30961779,0.30961779 0 0 1 0.309617,-0.309618 0.30961779,0.30961779 0 0 1 0.309618,0.309618 z M 47.720727,25.099613 a 0.36383191,0.36383191 0 0 1 -0.363832,0.363832 0.36383191,0.36383191 0 0 1 -0.363831,-0.363832 0.36383191,0.36383191 0 0 1 0.363831,-0.363832 0.36383191,0.36383191 0 0 1 0.363832,0.363832 z M 15.02137,116.21223 a 0.36383191,0.36383191 0 0 1 -0.363832,0.36383 0.36383191,0.36383191 0 0 1 -0.363831,-0.36383 0.36383191,0.36383191 0 0 1 0.363831,-0.36384 0.36383191,0.36383191 0 0 1 0.363832,0.36384 z m 85.56077,-30.555156 a 0.30961779,0.30961779 0 0 1 -0.30962,0.309618 0.30961779,0.30961779 0 0 1 -0.309616,-0.309618 0.30961779,0.30961779 0 0 1 0.309616,-0.309618 0.30961779,0.30961779 0 0 1 0.30962,0.309618 z M 53.082349,28.207266 a 0.36383191,0.36383191 0 0 1 -0.363832,0.363832 0.36383191,0.36383191 0 0 1 -0.363832,-0.363832 0.36383191,0.36383191 0 0 1 0.363832,-0.363832 0.36383191,0.36383191 0 0 1 0.363832,0.363832 z m 45.499272,90.865544 a 0.36383191,0.36383191 0 0 1 -0.363832,0.36383 0.36383191,0.36383191 0 0 1 -0.363832,-0.36383 0.36383191,0.36383191 0 0 1 0.363832,-0.36383 0.36383191,0.36383191 0 0 1 0.363832,0.36383 z M 16.66659,25.603771 a 0.30961779,0.30961779 0 0 1 -0.309618,0.309618 0.30961779,0.30961779 0 0 1 -0.309618,-0.309618 0.30961779,0.30961779 0 0 1 0.309618,-0.309618 0.30961779,0.30961779 0 0 1 0.309618,0.309618 z m 38.483813,74.135662 a 0.36383191,0.36383191 0 0 1 -0.363831,0.363837 0.36383191,0.36383191 0 0 1 -0.363832,-0.363837 0.36383191,0.36383191 0 0 1 0.363832,-0.363832 0.36383191,0.36383191 0 0 1 0.363831,0.363832 z M 87.764289,13.525804 a 0.47602803,0.47602803 0 0 1 -0.476028,0.476028 0.47602803,0.47602803 0 0 1 -0.476028,-0.476028 0.47602803,0.47602803 0 0 1 0.476028,-0.476028 0.47602803,0.47602803 0 0 1 0.476028,0.476028 z m 7.227257,24.973418 a 0.22704987,0.22704987 0 0 1 -0.22705,0.22705 0.22704987,0.22704987 0 0 1 -0.22705,-0.22705 0.22704987,0.22704987 0 0 1 0.22705,-0.22705 0.22704987,0.22704987 0 0 1 0.22705,0.22705 z M 68.284457,120.07795 a 0.24408998,0.24408998 0 0 1 -0.24409,0.24409 0.24408998,0.24408998 0 0 1 -0.24409,-0.24409 0.24408998,0.24408998 0 0 1 0.24409,-0.24409 0.24408998,0.24408998 0 0 1 0.24409,0.24409 z M 56.702737,63.868641 a 0.36383191,0.36383191 0 0 1 -0.363832,0.363832 0.36383191,0.36383191 0 0 1 -0.363832,-0.363832 0.36383191,0.36383191 0 0 1 0.363832,-0.363832 0.36383191,0.36383191 0 0 1 0.363832,0.363832 z m 9.364579,52.207959 a 0.30961779,0.30961779 0 0 1 -0.309618,0.30962 0.30961779,0.30961779 0 0 1 -0.309618,-0.30962 0.30961779,0.30961779 0 0 1 0.309618,-0.30962 0.30961779,0.30961779 0 0 1 0.309618,0.30962 z M 17.083248,52.214764 a 0.36383191,0.36383191 0 0 1 -0.363832,0.363832 0.36383191,0.36383191 0 0 1 -0.363832,-0.363832 0.36383191,0.36383191 0 0 1 0.363832,-0.363832 0.36383191,0.36383191 0 0 1 0.363832,0.363832 z m 78.608526,83.639426 a 0.36383191,0.36383191 0 0 1 -0.363832,0.36383 0.36383191,0.36383191 0 0 1 -0.363832,-0.36383 0.36383191,0.36383191 0 0 1 0.363832,-0.36383 0.36383191,0.36383191 0 0 1 0.363832,0.36383 z M 40.769769,3.9954872 A 0.30961779,0.30961779 0 0 1 40.460152,4.305105 0.30961779,0.30961779 0 0 1 40.150534,3.9954872 0.30961779,0.30961779 0 0 1 40.460152,3.6858694 0.30961779,0.30961779 0 0 1 40.769769,3.9954872 Z M 37.591749,40.94783 a 0.36383191,0.36383191 0 0 1 -0.363832,0.363832 0.36383191,0.36383191 0 0 1 -0.363832,-0.363832 0.36383191,0.36383191 0 0 1 0.363832,-0.363832 0.36383191,0.36383191 0 0 1 0.363832,0.363832 z m -3.543175,23.267632 a 0.36383191,0.36383191 0 0 1 -0.363832,0.363832 0.36383191,0.36383191 0 0 1 -0.363832,-0.363832 0.36383191,0.36383191 0 0 1 0.363832,-0.363832 0.36383191,0.36383191 0 0 1 0.363832,0.363832 z M 71.77775,124.01318 a 0.30961779,0.30961779 0 0 1 -0.309618,0.30962 0.30961779,0.30961779 0 0 1 -0.309618,-0.30962 0.30961779,0.30961779 0 0 1 0.309618,-0.30961 0.30961779,0.30961779 0 0 1 0.309618,0.30961 z" /><ellipse
       style="opacity:1;fill:url(#radialGradient15434);fill-opacity:1;stroke:none;stroke-width:0.124398;stroke-opacity:1;paint-order:stroke markers fill"
       id="path15396"
       cx="82.543442"
       cy="120.92885"
       rx="44.184052"
       ry="38.790787" /><ellipse
       style="fill:url(#radialGradient15434-1);fill-opacity:1;stroke:none;stroke-width:0.167828;stroke-opacity:1;paint-order:stroke markers fill"
       id="path15396-0"
       cx="106.82653"
       cy="66.80777"
       rx="61.466003"
       ry="50.752705" /><ellipse
       style="fill:url(#radialGradient15434-5);fill-opacity:1;stroke:none;stroke-width:0.124398;stroke-opacity:1;paint-order:stroke markers fill"
       id="path15396-9"
       cx="24.380585"
       cy="28.131813"
       rx="44.184052"
       ry="38.790787" /><path
       id="path5440"
       style="fill:none;fill-opacity:1;stroke:url(#linearGradient5451);stroke-width:0.3175;stroke-linecap:round;stroke-linejoin:round;stroke-dasharray:none;stroke-opacity:0.596078;paint-order:stroke markers fill"
       d="m 3.4872355,124.40244 -3.83379032,12.8519 25.02204682,-15.84092 m 0.123228,0.0278 -32.7894109,-1.75668 11.4795536,4.70608 z m -12.665118,-15.12125 13.245163,-4.10085 -0.650534,19.20213 z M -1.7085439,99.918212 12.270222,106.32573 -7.8391492,119.73572" /><path
       id="path4545"
       style="fill:none;fill-opacity:1;stroke:url(#linearGradient4704);stroke-width:0.3175;stroke-linecap:round;stroke-linejoin:round;stroke-dasharray:none;stroke-opacity:0.596078;paint-order:stroke markers fill"
       d="M 89.894669,24.40775 106.54324,21.760574 M 61.079146,24.657643 89.893589,24.408356 85.184514,37.324923 61.079996,24.656356 77.914412,50.799873 88.725894,58.463063 102.31638,49.074077 M 85.182726,37.320672 77.915095,50.800126 102.23038,48.838223 m -0.0831,-22.870717 -16.973014,11.348281 16.962864,11.278542 z" /></g></svg>
